<mxfile host="app.diagrams.net" modified="2023-02-14T22:30:17.159Z" agent="5.0 (Windows NT 10.0; Win64; x64) AppleWebKit/537.36 (KHTML, like Gecko) Chrome/109.0.0.0 Safari/537.36" etag="bizIzy38XW3QW3Nmle5t" version="20.8.20" type="github">
  <diagram name="Page-1" id="-zyc0Z26sQPNH6iRcX32">
    <mxGraphModel dx="954" dy="1728" grid="1" gridSize="10" guides="1" tooltips="1" connect="1" arrows="1" fold="1" page="1" pageScale="1" pageWidth="827" pageHeight="1169" math="0" shadow="0">
      <root>
        <mxCell id="0" />
        <mxCell id="1" parent="0" />
        <mxCell id="MsCqpQJkBD-knILQtsXa-53" style="edgeStyle=orthogonalEdgeStyle;rounded=0;orthogonalLoop=1;jettySize=auto;html=1;entryX=0;entryY=0.5;entryDx=0;entryDy=0;" parent="1" source="MsCqpQJkBD-knILQtsXa-2" target="MsCqpQJkBD-knILQtsXa-51" edge="1">
          <mxGeometry relative="1" as="geometry" />
        </mxCell>
        <mxCell id="MsCqpQJkBD-knILQtsXa-2" value="Actor" style="shape=umlActor;verticalLabelPosition=bottom;verticalAlign=top;html=1;outlineConnect=0;" parent="1" vertex="1">
          <mxGeometry x="10" y="220" width="30" height="60" as="geometry" />
        </mxCell>
        <mxCell id="MsCqpQJkBD-knILQtsXa-62" style="edgeStyle=orthogonalEdgeStyle;rounded=0;orthogonalLoop=1;jettySize=auto;html=1;entryX=0.993;entryY=0.64;entryDx=0;entryDy=0;entryPerimeter=0;" parent="1" source="MsCqpQJkBD-knILQtsXa-3" target="MsCqpQJkBD-knILQtsXa-60" edge="1">
          <mxGeometry relative="1" as="geometry">
            <mxPoint x="650" y="250" as="targetPoint" />
          </mxGeometry>
        </mxCell>
        <mxCell id="MsCqpQJkBD-knILQtsXa-68" style="edgeStyle=orthogonalEdgeStyle;rounded=0;orthogonalLoop=1;jettySize=auto;html=1;exitX=0.25;exitY=0.1;exitDx=0;exitDy=0;exitPerimeter=0;entryX=0.75;entryY=0.75;entryDx=0;entryDy=0;entryPerimeter=0;" parent="1" source="MsCqpQJkBD-knILQtsXa-3" target="MsCqpQJkBD-knILQtsXa-67" edge="1">
          <mxGeometry relative="1" as="geometry" />
        </mxCell>
        <mxCell id="MsCqpQJkBD-knILQtsXa-74" style="edgeStyle=orthogonalEdgeStyle;rounded=0;orthogonalLoop=1;jettySize=auto;html=1;entryX=1;entryY=0.5;entryDx=0;entryDy=0;" parent="1" source="MsCqpQJkBD-knILQtsXa-3" target="MsCqpQJkBD-knILQtsXa-73" edge="1">
          <mxGeometry relative="1" as="geometry" />
        </mxCell>
        <mxCell id="MsCqpQJkBD-knILQtsXa-3" value="Actor" style="shape=umlActor;verticalLabelPosition=bottom;verticalAlign=top;html=1;outlineConnect=0;" parent="1" vertex="1">
          <mxGeometry x="800" y="220" width="30" height="60" as="geometry" />
        </mxCell>
        <mxCell id="MsCqpQJkBD-knILQtsXa-4" value="Login" style="ellipse;whiteSpace=wrap;html=1;" parent="1" vertex="1">
          <mxGeometry x="110" y="270" width="80" height="40" as="geometry" />
        </mxCell>
        <mxCell id="MsCqpQJkBD-knILQtsXa-5" value="Register" style="ellipse;whiteSpace=wrap;html=1;" parent="1" vertex="1">
          <mxGeometry x="110" y="350" width="90" height="40" as="geometry" />
        </mxCell>
        <mxCell id="MsCqpQJkBD-knILQtsXa-6" value="Validasi data" style="ellipse;whiteSpace=wrap;html=1;" parent="1" vertex="1">
          <mxGeometry x="100" y="430" width="120" height="40" as="geometry" />
        </mxCell>
        <mxCell id="MsCqpQJkBD-knILQtsXa-8" value="" style="endArrow=classic;html=1;rounded=0;" parent="1" source="MsCqpQJkBD-knILQtsXa-2" edge="1">
          <mxGeometry width="50" height="50" relative="1" as="geometry">
            <mxPoint x="280" y="320" as="sourcePoint" />
            <mxPoint x="110" y="290" as="targetPoint" />
            <Array as="points">
              <mxPoint x="60" y="280" />
            </Array>
          </mxGeometry>
        </mxCell>
        <mxCell id="MsCqpQJkBD-knILQtsXa-9" value="" style="endArrow=classic;html=1;rounded=0;" parent="1" edge="1">
          <mxGeometry width="50" height="50" relative="1" as="geometry">
            <mxPoint x="40" y="270" as="sourcePoint" />
            <mxPoint x="110" y="370" as="targetPoint" />
            <Array as="points">
              <mxPoint x="50" y="350" />
            </Array>
          </mxGeometry>
        </mxCell>
        <mxCell id="MsCqpQJkBD-knILQtsXa-13" value="Tambah data Image halaman utama" style="ellipse;whiteSpace=wrap;html=1;" parent="1" vertex="1">
          <mxGeometry x="240" y="10" width="140" height="40" as="geometry" />
        </mxCell>
        <mxCell id="MsCqpQJkBD-knILQtsXa-27" value="Tambah data villa" style="ellipse;whiteSpace=wrap;html=1;" parent="1" vertex="1">
          <mxGeometry x="270" y="180" width="120" height="40" as="geometry" />
        </mxCell>
        <mxCell id="MsCqpQJkBD-knILQtsXa-34" value="Tambah data galeri villa" style="ellipse;whiteSpace=wrap;html=1;" parent="1" vertex="1">
          <mxGeometry x="360" y="60" width="130" height="40" as="geometry" />
        </mxCell>
        <mxCell id="MsCqpQJkBD-knILQtsXa-39" value="" style="endArrow=none;dashed=1;html=1;rounded=0;exitX=0.938;exitY=0.125;exitDx=0;exitDy=0;exitPerimeter=0;entryX=0.5;entryY=1;entryDx=0;entryDy=0;" parent="1" source="MsCqpQJkBD-knILQtsXa-4" target="MsCqpQJkBD-knILQtsXa-27" edge="1">
          <mxGeometry width="50" height="50" relative="1" as="geometry">
            <mxPoint x="370" y="310" as="sourcePoint" />
            <mxPoint x="420" y="260" as="targetPoint" />
          </mxGeometry>
        </mxCell>
        <mxCell id="MsCqpQJkBD-knILQtsXa-40" value="&amp;lt;&amp;lt;include&amp;gt;&amp;gt;" style="text;html=1;align=center;verticalAlign=middle;resizable=0;points=[];autosize=1;strokeColor=none;fillColor=none;rotation=-15;" parent="1" vertex="1">
          <mxGeometry x="190" y="230" width="90" height="30" as="geometry" />
        </mxCell>
        <mxCell id="MsCqpQJkBD-knILQtsXa-43" value="" style="endArrow=none;dashed=1;html=1;rounded=0;exitX=0.5;exitY=0;exitDx=0;exitDy=0;entryX=0.421;entryY=1.05;entryDx=0;entryDy=0;entryPerimeter=0;" parent="1" source="MsCqpQJkBD-knILQtsXa-4" target="MsCqpQJkBD-knILQtsXa-13" edge="1">
          <mxGeometry width="50" height="50" relative="1" as="geometry">
            <mxPoint x="110" y="205" as="sourcePoint" />
            <mxPoint x="255" y="150" as="targetPoint" />
          </mxGeometry>
        </mxCell>
        <mxCell id="MsCqpQJkBD-knILQtsXa-44" value="&amp;lt;&amp;lt;include&amp;gt;&amp;gt;" style="text;html=1;align=center;verticalAlign=middle;resizable=0;points=[];autosize=1;strokeColor=none;fillColor=none;rotation=-75;" parent="1" vertex="1">
          <mxGeometry x="170" y="140" width="90" height="30" as="geometry" />
        </mxCell>
        <mxCell id="MsCqpQJkBD-knILQtsXa-45" value="" style="endArrow=none;dashed=1;html=1;rounded=0;entryX=0.5;entryY=1;entryDx=0;entryDy=0;exitX=0.867;exitY=0;exitDx=0;exitDy=0;exitPerimeter=0;" parent="1" source="MsCqpQJkBD-knILQtsXa-27" target="MsCqpQJkBD-knILQtsXa-34" edge="1">
          <mxGeometry width="50" height="50" relative="1" as="geometry">
            <mxPoint x="370" y="310" as="sourcePoint" />
            <mxPoint x="420" y="260" as="targetPoint" />
          </mxGeometry>
        </mxCell>
        <mxCell id="MsCqpQJkBD-knILQtsXa-46" value="&amp;lt;&amp;lt;include&amp;gt;&amp;gt;" style="text;html=1;align=center;verticalAlign=middle;resizable=0;points=[];autosize=1;strokeColor=none;fillColor=none;rotation=-50;" parent="1" vertex="1">
          <mxGeometry x="345" y="130" width="90" height="30" as="geometry" />
        </mxCell>
        <mxCell id="MsCqpQJkBD-knILQtsXa-47" value="" style="endArrow=classic;html=1;rounded=0;entryX=0.083;entryY=0.675;entryDx=0;entryDy=0;entryPerimeter=0;" parent="1" target="MsCqpQJkBD-knILQtsXa-27" edge="1">
          <mxGeometry width="50" height="50" relative="1" as="geometry">
            <mxPoint x="50" y="250" as="sourcePoint" />
            <mxPoint x="420" y="260" as="targetPoint" />
          </mxGeometry>
        </mxCell>
        <mxCell id="MsCqpQJkBD-knILQtsXa-48" value="" style="endArrow=classic;html=1;rounded=0;entryX=0.062;entryY=0.9;entryDx=0;entryDy=0;entryPerimeter=0;" parent="1" target="MsCqpQJkBD-knILQtsXa-34" edge="1">
          <mxGeometry width="50" height="50" relative="1" as="geometry">
            <mxPoint x="50" y="240" as="sourcePoint" />
            <mxPoint x="290" y="217" as="targetPoint" />
          </mxGeometry>
        </mxCell>
        <mxCell id="MsCqpQJkBD-knILQtsXa-49" value="" style="endArrow=classic;html=1;rounded=0;entryX=0.586;entryY=1.075;entryDx=0;entryDy=0;entryPerimeter=0;" parent="1" target="MsCqpQJkBD-knILQtsXa-13" edge="1">
          <mxGeometry width="50" height="50" relative="1" as="geometry">
            <mxPoint x="50" y="220" as="sourcePoint" />
            <mxPoint x="408" y="76" as="targetPoint" />
          </mxGeometry>
        </mxCell>
        <mxCell id="MsCqpQJkBD-knILQtsXa-51" value="Mengecek data Contact Us yang masuk" style="ellipse;whiteSpace=wrap;html=1;" parent="1" vertex="1">
          <mxGeometry x="305" y="240" width="135" height="50" as="geometry" />
        </mxCell>
        <mxCell id="MsCqpQJkBD-knILQtsXa-58" value="" style="endArrow=none;dashed=1;html=1;rounded=0;exitX=1;exitY=0.5;exitDx=0;exitDy=0;entryX=0.044;entryY=0.7;entryDx=0;entryDy=0;entryPerimeter=0;" parent="1" source="MsCqpQJkBD-knILQtsXa-4" target="MsCqpQJkBD-knILQtsXa-51" edge="1">
          <mxGeometry width="50" height="50" relative="1" as="geometry">
            <mxPoint x="195" y="285" as="sourcePoint" />
            <mxPoint x="340" y="230" as="targetPoint" />
          </mxGeometry>
        </mxCell>
        <mxCell id="MsCqpQJkBD-knILQtsXa-59" value="&amp;lt;&amp;lt;include&amp;gt;&amp;gt;" style="text;html=1;align=center;verticalAlign=middle;resizable=0;points=[];autosize=1;strokeColor=none;fillColor=none;rotation=0;" parent="1" vertex="1">
          <mxGeometry x="200" y="280" width="90" height="30" as="geometry" />
        </mxCell>
        <mxCell id="MsCqpQJkBD-knILQtsXa-60" value="Memgisi form contact us" style="ellipse;whiteSpace=wrap;html=1;" parent="1" vertex="1">
          <mxGeometry x="520" y="240" width="135" height="50" as="geometry" />
        </mxCell>
        <mxCell id="MsCqpQJkBD-knILQtsXa-64" value="" style="endArrow=none;dashed=1;html=1;rounded=0;entryX=0;entryY=0.5;entryDx=0;entryDy=0;exitX=0.956;exitY=0.3;exitDx=0;exitDy=0;exitPerimeter=0;" parent="1" source="MsCqpQJkBD-knILQtsXa-51" target="MsCqpQJkBD-knILQtsXa-60" edge="1">
          <mxGeometry width="50" height="50" relative="1" as="geometry">
            <mxPoint x="384" y="190" as="sourcePoint" />
            <mxPoint x="465" y="80" as="targetPoint" />
          </mxGeometry>
        </mxCell>
        <mxCell id="MsCqpQJkBD-knILQtsXa-65" value="&amp;lt;&amp;lt;extend&amp;gt;&amp;gt;" style="text;html=1;align=center;verticalAlign=middle;resizable=0;points=[];autosize=1;strokeColor=none;fillColor=none;rotation=15;" parent="1" vertex="1">
          <mxGeometry x="440" y="230" width="90" height="30" as="geometry" />
        </mxCell>
        <mxCell id="MsCqpQJkBD-knILQtsXa-67" value="Melihat image di halaman utama" style="ellipse;whiteSpace=wrap;html=1;" parent="1" vertex="1">
          <mxGeometry x="540" width="120" height="40" as="geometry" />
        </mxCell>
        <mxCell id="MsCqpQJkBD-knILQtsXa-69" value="&amp;lt;&amp;lt;extend&amp;gt;&amp;gt;" style="text;html=1;align=center;verticalAlign=middle;resizable=0;points=[];autosize=1;strokeColor=none;fillColor=none;rotation=0;" parent="1" vertex="1">
          <mxGeometry x="414" y="-10" width="90" height="30" as="geometry" />
        </mxCell>
        <mxCell id="MsCqpQJkBD-knILQtsXa-70" value="" style="endArrow=none;dashed=1;html=1;rounded=0;entryX=-0.008;entryY=0.35;entryDx=0;entryDy=0;exitX=1.007;exitY=0.2;exitDx=0;exitDy=0;exitPerimeter=0;entryPerimeter=0;" parent="1" source="MsCqpQJkBD-knILQtsXa-13" target="MsCqpQJkBD-knILQtsXa-67" edge="1">
          <mxGeometry width="50" height="50" relative="1" as="geometry">
            <mxPoint x="444" y="265" as="sourcePoint" />
            <mxPoint x="530" y="275" as="targetPoint" />
          </mxGeometry>
        </mxCell>
        <mxCell id="MsCqpQJkBD-knILQtsXa-73" value="melihat informasi villa" style="ellipse;whiteSpace=wrap;html=1;" parent="1" vertex="1">
          <mxGeometry x="490" y="170" width="120" height="40" as="geometry" />
        </mxCell>
        <mxCell id="MsCqpQJkBD-knILQtsXa-75" value="&amp;lt;&amp;lt;extend&amp;gt;&amp;gt;" style="text;html=1;align=center;verticalAlign=middle;resizable=0;points=[];autosize=1;strokeColor=none;fillColor=none;rotation=-15;" parent="1" vertex="1">
          <mxGeometry x="390" y="170" width="90" height="30" as="geometry" />
        </mxCell>
        <mxCell id="MsCqpQJkBD-knILQtsXa-76" value="" style="endArrow=none;dashed=1;html=1;rounded=0;entryX=0;entryY=0.5;entryDx=0;entryDy=0;exitX=1.033;exitY=0.725;exitDx=0;exitDy=0;exitPerimeter=0;" parent="1" source="MsCqpQJkBD-knILQtsXa-27" target="MsCqpQJkBD-knILQtsXa-73" edge="1">
          <mxGeometry width="50" height="50" relative="1" as="geometry">
            <mxPoint x="444" y="265" as="sourcePoint" />
            <mxPoint x="530" y="275" as="targetPoint" />
          </mxGeometry>
        </mxCell>
        <mxCell id="MsCqpQJkBD-knILQtsXa-78" value="Melihat galeri villa" style="ellipse;whiteSpace=wrap;html=1;" parent="1" vertex="1">
          <mxGeometry x="640" y="60" width="120" height="40" as="geometry" />
        </mxCell>
        <mxCell id="MsCqpQJkBD-knILQtsXa-80" value="" style="endArrow=none;dashed=1;html=1;rounded=0;entryX=0;entryY=0.5;entryDx=0;entryDy=0;exitX=1;exitY=0.5;exitDx=0;exitDy=0;" parent="1" source="MsCqpQJkBD-knILQtsXa-34" target="MsCqpQJkBD-knILQtsXa-78" edge="1">
          <mxGeometry width="50" height="50" relative="1" as="geometry">
            <mxPoint x="404" y="219" as="sourcePoint" />
            <mxPoint x="500" y="200" as="targetPoint" />
          </mxGeometry>
        </mxCell>
        <mxCell id="MsCqpQJkBD-knILQtsXa-81" value="&amp;lt;&amp;lt;extend&amp;gt;&amp;gt;" style="text;html=1;align=center;verticalAlign=middle;resizable=0;points=[];autosize=1;strokeColor=none;fillColor=none;rotation=0;" parent="1" vertex="1">
          <mxGeometry x="504" y="50" width="90" height="30" as="geometry" />
        </mxCell>
        <mxCell id="MsCqpQJkBD-knILQtsXa-83" value="" style="endArrow=none;dashed=1;html=1;rounded=0;entryX=1;entryY=0;entryDx=0;entryDy=0;exitX=0.217;exitY=1.025;exitDx=0;exitDy=0;exitPerimeter=0;" parent="1" source="MsCqpQJkBD-knILQtsXa-78" target="MsCqpQJkBD-knILQtsXa-73" edge="1">
          <mxGeometry width="50" height="50" relative="1" as="geometry">
            <mxPoint x="404" y="219" as="sourcePoint" />
            <mxPoint x="500" y="200" as="targetPoint" />
          </mxGeometry>
        </mxCell>
        <mxCell id="MsCqpQJkBD-knILQtsXa-84" value="&amp;lt;&amp;lt;include&amp;gt;&amp;gt;" style="text;html=1;align=center;verticalAlign=middle;resizable=0;points=[];autosize=1;strokeColor=none;fillColor=none;rotation=-50;" parent="1" vertex="1">
          <mxGeometry x="565" y="120" width="90" height="30" as="geometry" />
        </mxCell>
        <mxCell id="MsCqpQJkBD-knILQtsXa-85" value="" style="endArrow=none;dashed=1;html=1;rounded=0;" parent="1" edge="1">
          <mxGeometry width="50" height="50" relative="1" as="geometry">
            <mxPoint x="410" y="210" as="sourcePoint" />
            <mxPoint x="460" y="160" as="targetPoint" />
          </mxGeometry>
        </mxCell>
        <mxCell id="MsCqpQJkBD-knILQtsXa-88" value="" style="endArrow=none;dashed=1;html=1;rounded=0;" parent="1" edge="1">
          <mxGeometry width="50" height="50" relative="1" as="geometry">
            <mxPoint x="410" y="210" as="sourcePoint" />
            <mxPoint x="460" y="160" as="targetPoint" />
          </mxGeometry>
        </mxCell>
        <mxCell id="MsCqpQJkBD-knILQtsXa-89" value="" style="endArrow=none;dashed=1;html=1;rounded=0;entryX=0.5;entryY=1;entryDx=0;entryDy=0;exitX=0.433;exitY=0.025;exitDx=0;exitDy=0;exitPerimeter=0;" parent="1" source="MsCqpQJkBD-knILQtsXa-5" target="MsCqpQJkBD-knILQtsXa-4" edge="1">
          <mxGeometry width="50" height="50" relative="1" as="geometry">
            <mxPoint x="120" y="360" as="sourcePoint" />
            <mxPoint x="170" y="310" as="targetPoint" />
          </mxGeometry>
        </mxCell>
        <mxCell id="MsCqpQJkBD-knILQtsXa-90" value="" style="endArrow=none;dashed=1;html=1;rounded=0;" parent="1" edge="1">
          <mxGeometry width="50" height="50" relative="1" as="geometry">
            <mxPoint x="150" y="430" as="sourcePoint" />
            <mxPoint x="150" y="390" as="targetPoint" />
            <Array as="points">
              <mxPoint x="150" y="420" />
            </Array>
          </mxGeometry>
        </mxCell>
        <mxCell id="MsCqpQJkBD-knILQtsXa-92" value="&amp;lt;&amp;lt;include&amp;gt;&amp;gt;" style="text;html=1;align=center;verticalAlign=middle;resizable=0;points=[];autosize=1;strokeColor=none;fillColor=none;rotation=0;" parent="1" vertex="1">
          <mxGeometry x="130" y="310" width="90" height="30" as="geometry" />
        </mxCell>
        <mxCell id="MsCqpQJkBD-knILQtsXa-93" value="&amp;lt;&amp;lt;include&amp;gt;&amp;gt;" style="text;html=1;align=center;verticalAlign=middle;resizable=0;points=[];autosize=1;strokeColor=none;fillColor=none;rotation=0;" parent="1" vertex="1">
          <mxGeometry x="130" y="390" width="90" height="30" as="geometry" />
        </mxCell>
        <mxCell id="MsCqpQJkBD-knILQtsXa-94" value="&lt;font color=&quot;#4f4f4f&quot; style=&quot;font-size: 16px;&quot;&gt;&lt;b&gt;Use Case SI_SewaVilla&lt;/b&gt;&lt;/font&gt;" style="text;html=1;align=center;verticalAlign=middle;resizable=0;points=[];autosize=1;strokeColor=none;fillColor=none;" parent="1" vertex="1">
          <mxGeometry x="314" y="-110" width="200" height="30" as="geometry" />
        </mxCell>
      </root>
    </mxGraphModel>
  </diagram>
</mxfile>
